:SAMPLES-PER-SECOND 30
:FULLY-SPECIFIED
:DEGREES
324
root  11.6574 40.5483 -6.72779 -121.007 -86.6846 121.204
RightUpLeg  -3.63424 -13.2161 -15.2115
RightLeg  4.64802 -7.61645 2.48868
RightFoot  3.77562 -0.856443 6.67408
RightToes  0.00048216 0.542163 -0.142577
Spine  7.80422 -1.55937 -3.14002
Spine1  11.8757 -0.843806 -3.37854
HEad  -21.0484 6.272 -8.49337
LeftShoulder1  11.3728 -15.8579 -51.2692
LeftArm  1.75912 -5.31899 -23.3451
LeftForeArm  32.1319 -15.026 -6.26315
LeftHand  -0.25398 0.0180481 5.50724
RightShoulder  7.00064 11.4881 40.526
RightArm  12.2401 13.3779 41.253
RightForeArm  22.0985 13.1412 8.03398
RightHand  -1.64454 7.8479 -14.7838
LeftUpLeg  -2.78769 5.9271 4.80883
LeftLeg  3.32205 9.87535 -3.4202
LeftFoot  0.662192 0.302184 -2.91349
LeftToes  1.06241e-005 4.65855e-005 -8.18508e-006
325
root  11.6715 40.5506 -6.74072 -124.254 -86.5887 124.443
RightUpLeg  -3.72292 -13.1148 -15.1046
RightLeg  4.64421 -7.52993 2.44646
RightFoot  3.82319 -0.852314 6.59019
RightToes  0.00048216 0.542163 -0.142577
Spine  7.47857 -1.60918 -3.29
Spine1  12.4408 -0.88301 -3.36841
HEad  -20.413 4.72085 -7.13132
LeftShoulder1  11.3806 -15.8534 -51.3153
LeftArm  3.16204 -6.55222 -24.3012
LeftForeArm  31.994 -15.5811 -6.15448
LeftHand  -0.25398 0.0180481 5.50724
RightShoulder  7.02516 11.5701 40.4392
RightArm  14.6167 14.3464 42.6027
RightForeArm  21.5913 13.7594 7.95374
RightHand  -1.64039 7.84933 -14.7466
LeftUpLeg  -2.74114 5.95057 4.8626
LeftLeg  3.27356 10.0495 -3.41365
LeftFoot  0.707683 0.305699 -2.94233
LeftToes  1.06241e-005 4.65855e-005 -8.18508e-006
326
root  11.6678 40.5523 -6.75344 -127.887 -86.5058 128.012
RightUpLeg  -3.66949 -13 -14.9952
RightLeg  4.53986 -7.42421 2.44548
RightFoot  3.8745 -0.859018 6.62254
RightToes  0.00048216 0.542163 -0.142577
Spine  7.23529 -1.69625 -3.30554
Spine1  12.8099 -0.91905 -3.51081
HEad  -19.7186 3.52807 -5.65416
LeftShoulder1  11.375 -15.898 -51.1745
LeftArm  4.68707 -7.25336 -25.2096
LeftForeArm  31.8391 -16.3583 -5.89636
LeftHand  -0.25398 0.0180481 5.50724
RightShoulder  7.05884 11.6264 40.4855
RightArm  17.358 14.7837 43.7835
RightForeArm  20.6276 14.8444 7.60049
RightHand  -1.61576 7.8162 -14.5685
LeftUpLeg  -2.63568 5.97202 4.94773
LeftLeg  3.29718 10.2266 -3.34867
LeftFoot  0.681491 0.311066 -3.00585
LeftToes  1.06241e-005 4.65855e-005 -8.18508e-006
327
root  11.6456 40.5557 -6.76602 -134.223 -86.2738 134.258
RightUpLeg  -3.59203 -12.8393 -14.8395
RightLeg  4.3572 -7.14035 2.44914
RightFoot  3.94792 -0.871794 6.68913
RightToes  0.00048216 0.542163 -0.142577
Spine  7.08006 -1.68998 -3.21916
Spine1  12.9493 -0.850821 -3.68154
HEad  -19.1041 2.63494 -4.30107
LeftShoulder1  11.3985 -15.9725 -51.0853
LeftArm  6.43796 -7.51873 -25.8858
LeftForeArm  31.4655 -17.2748 -5.554
LeftHand  -0.25398 0.0180481 5.50724
RightShoulder  7.06071 11.5935 40.5936
RightArm  20.3713 14.7201 44.7363
RightForeArm  18.7156 16.2806 7.01377
RightHand  -1.58917 7.69468 -14.4643
LeftUpLeg  -2.40941 6.06614 5.09766
LeftLeg  3.29091 10.5454 -3.3209
LeftFoot  0.611561 0.315819 -3.06262
LeftToes  1.06241e-005 4.65855e-005 -8.18508e-006
328
root  11.6098 40.5619 -6.77632 -140.975 -85.895 140.923
RightUpLeg  -3.52422 -12.6585 -14.6696
RightLeg  4.14256 -6.75132 2.43801
RightFoot  4.03947 -0.87685 6.6896
RightToes  0.00048216 0.542163 -0.142577
Spine  7.03091 -1.61422 -3.21645
Spine1  12.8651 -0.795041 -3.60848
HEad  -18.7035 1.99723 -3.2719
LeftShoulder1  11.446 -15.9985 -51.2279
LeftArm  8.27483 -7.57597 -26.2146
LeftForeArm  30.9336 -18.0798 -5.26009
LeftHand  -0.25398 0.0180481 5.50724
RightShoulder  7.03099 11.514 40.6404
RightArm  23.4113 14.2738 45.4386
RightForeArm  16.2623 17.8032 6.32858
RightHand  -1.59324 7.64785 -14.5484
LeftUpLeg  -2.09009 6.20046 5.26449
LeftLeg  3.19032 10.9528 -3.35597
LeftFoot  0.546632 0.319105 -3.09626
LeftToes  1.06241e-005 4.65855e-005 -8.18508e-006
329
root  11.5697 40.5694 -6.78358 -145.159 -85.5795 145.026
RightUpLeg  -3.39713 -12.531 -14.5579
RightLeg  3.92308 -6.44973 2.44191
RightFoot  4.11837 -0.875334 6.62723
RightToes  0.00048216 0.542163 -0.142577
Spine  7.08594 -1.60693 -3.29323
Spine1  12.6467 -0.883835 -3.33293
HEad  -18.5606 1.62132 -2.47441
LeftShoulder1  11.4729 -15.9647 -51.4337
LeftArm  9.84733 -7.54306 -26.3123
LeftForeArm  30.4654 -18.5705 -5.10435
LeftHand  -0.25398 0.0180481 5.50724
RightShoulder  7.02672 11.5005 40.6535
RightArm  26.1299 13.5684 45.8019
RightForeArm  14.1703 19.1961 5.68009
RightHand  -1.61536 7.7595 -14.6248
LeftUpLeg  -1.77883 6.27172 5.37423
LeftLeg  3.04971 11.2761 -3.37427
LeftFoot  0.504028 0.323524 -3.14413
LeftToes  1.06241e-005 4.65855e-005 -8.18508e-006
330
root  11.5293 40.5766 -6.79089 -147.442 -85.3955 147.239
RightUpLeg  -3.22681 -12.4537 -14.491
RightLeg  3.72233 -6.26831 2.45986
RightFoot  4.1634 -0.872345 6.55905
RightToes  0.00048216 0.542163 -0.142577
Spine  7.16913 -1.68643 -3.28588
Spine1  12.4078 -1.04901 -3.10143
HEad  -18.6142 1.46496 -1.804
LeftShoulder1  11.4678 -15.9385 -51.4792
LeftArm  10.7703 -7.39788 -26.3443
LeftForeArm  30.3353 -18.6476 -5.12118
LeftHand  -0.25398 0.0180481 5.50724
RightShoulder  7.06549 11.5615 40.7171
RightArm  28.2122 12.7543 45.8051
RightForeArm  13.0429 20.2616 5.19681
RightHand  -1.59293 7.77486 -14.4131
LeftUpLeg  -1.53414 6.28569 5.44091
LeftLeg  2.94668 11.484 -3.34853
LeftFoot  0.471772 0.330254 -3.22096
LeftToes  1.06241e-005 4.65855e-005 -8.18508e-006
331
root  11.4867 40.5841 -6.80099 -149.717 -85.184 149.464
RightUpLeg  -3.10299 -12.3549 -14.4001
RightLeg  3.54334 -6.08586 2.44777
RightFoot  4.19445 -0.870956 6.53113
RightToes  0.00048216 0.542163 -0.142577
Spine  7.20369 -1.73004 -3.16477
Spine1  12.1943 -1.14597 -2.94142
HEad  -18.7155 1.4451 -1.32274
LeftShoulder1  11.4685 -15.968 -51.4056
LeftArm  10.7688 -7.13826 -26.3515
LeftForeArm  30.8531 -18.2097 -5.35875
LeftHand  -0.25398 0.0180481 5.50724
RightShoulder  7.09292 11.6024 40.7686
RightArm  29.6353 11.9745 45.5818
RightForeArm  12.8307 20.7998 4.97032
RightHand  -1.49889 7.4512 -13.9181
LeftUpLeg  -1.31672 6.32415 5.52173
LeftLeg  2.86313 11.7074 -3.33684
LeftFoot  0.451233 0.337308 -3.29194
LeftToes  1.06241e-005 4.65855e-005 -8.18508e-006
